<svg width="24" height="25" viewBox="0 0 24 25" fill="none" xmlns="http://www.w3.org/2000/svg">
<path d="M5.57999 5.83485C5.79092 5.62418 6.07686 5.50584 6.37499 5.50584C6.67311 5.50584 6.95905 5.62418 7.16999 5.83485L12 10.6649L16.83 5.83485C16.9675 5.68676 17.1424 5.57851 17.3363 5.52149C17.5301 5.46447 17.7358 5.46079 17.9316 5.51085C18.1274 5.56091 18.306 5.66285 18.4487 5.80593C18.5915 5.94901 18.6929 6.12794 18.7425 6.32385C18.7926 6.51942 18.7891 6.72487 18.7324 6.91862C18.6756 7.11236 18.5677 7.28724 18.42 7.42485L13.59 12.2549L18.42 17.0849C18.5681 17.2224 18.6763 17.3973 18.7334 17.5911C18.7904 17.785 18.794 17.9907 18.744 18.1865C18.6939 18.3822 18.592 18.5609 18.4489 18.7036C18.3058 18.8463 18.1269 18.9478 17.931 18.9974C17.7354 19.0475 17.53 19.044 17.3362 18.9872C17.1425 18.9305 16.9676 18.8226 16.83 18.6749L12 13.8449L7.16999 18.6749C6.95659 18.8735 6.67452 18.9816 6.38304 18.9766C6.09157 18.9715 5.81339 18.8537 5.60699 18.6479C5.40112 18.4414 5.28329 18.1633 5.27825 17.8718C5.27322 17.5803 5.38137 17.2982 5.57999 17.0849L10.41 12.2549L5.57999 7.42485C5.36931 7.21391 5.25098 6.92798 5.25098 6.62985C5.25098 6.33173 5.36931 6.04579 5.57999 5.83485Z" fill="#FEFFFE"/>
</svg>
